<svg width="32" height="32" viewBox="0 0 32 32" fill="none" xmlns="http://www.w3.org/2000/svg">
<path fill-rule="evenodd" clip-rule="evenodd" d="M17.6099 8.30953C17.9912 7.91003 18.6242 7.89531 19.0237 8.27665L26.3571 15.2766C26.5547 15.4653 26.6666 15.7267 26.6666 16C26.6666 16.2733 26.5547 16.5347 26.3571 16.7234L19.0237 23.7234C18.6242 24.1047 17.9912 24.09 17.6099 23.6905C17.2286 23.291 17.2433 22.658 17.6428 22.2766L24.2183 16L17.6428 9.72336C17.2433 9.34202 17.2286 8.70902 17.6099 8.30953Z" fill="white"/>
<path fill-rule="evenodd" clip-rule="evenodd" d="M5.33325 16C5.33325 15.4477 5.78097 15 6.33325 15H25.3333C25.8855 15 26.3333 15.4477 26.3333 16C26.3333 16.5523 25.8855 17 25.3333 17H6.33325C5.78097 17 5.33325 16.5523 5.33325 16Z" fill="white"/>
</svg>
