<svg width="344" height="174" viewBox="0 0 344 174" fill="none" xmlns="http://www.w3.org/2000/svg">
<rect width="392" height="215.122" rx="12" fill="black"/>
<rect x="1.19512" y="1.19512" width="389.61" height="212.732" rx="10.8049" stroke="white" stroke-opacity="0.1" stroke-width="2.39024"/>
<path fill-rule="evenodd" clip-rule="evenodd" d="M27.3741 33.671C27.6305 33.4024 28.056 33.3925 28.3246 33.6489L33.2545 38.3547C33.3874 38.4815 33.4626 38.6572 33.4626 38.8409C33.4626 39.0247 33.3874 39.2004 33.2545 39.3272L28.3246 44.033C28.056 44.2894 27.6305 44.2795 27.3741 44.0109C27.1178 43.7423 27.1277 43.3168 27.3962 43.0605C29.8036 40.7625 29.8036 36.9194 27.3962 34.6214C27.1277 34.3651 27.1178 33.9395 27.3741 33.671Z" fill="#1C88C7"/>
<path fill-rule="evenodd" clip-rule="evenodd" d="M19.1211 38.8409C19.1211 38.4697 19.4221 38.1687 19.7933 38.1687H32.5662C32.9375 38.1687 33.2385 38.4697 33.2385 38.8409C33.2385 39.2122 32.9375 39.5132 32.5662 39.5132H19.7933C19.4221 39.5132 19.1211 39.2122 19.1211 38.8409Z" fill="#1C88C7"/>
<path d="M39.3949 39.6778C39.3813 39.0905 39.4679 38.6083 39.6546 38.2315C39.8447 37.8546 40.0994 37.5762 40.4185 37.3962C40.7377 37.2129 41.0891 37.1212 41.4728 37.1212C41.8123 37.1212 42.1263 37.1942 42.4149 37.3402C42.7035 37.4828 43.0329 37.7171 43.403 38.043C43.6338 38.2434 43.8223 38.3893 43.9683 38.481C44.1143 38.5693 44.2772 38.6134 44.4572 38.6134C44.7322 38.6134 44.9512 38.5116 45.1142 38.3079C45.2805 38.1008 45.3603 37.7952 45.3535 37.3911H46.642C46.6556 37.9819 46.5673 38.4657 46.3772 38.8426C46.1904 39.2195 45.9358 39.4979 45.6132 39.6778C45.2941 39.8578 44.9444 39.9478 44.5641 39.9478C44.2212 39.9478 43.9054 39.8748 43.6169 39.7288C43.3283 39.5794 43.0006 39.3451 42.6339 39.026C42.3963 38.8188 42.2061 38.6728 42.0635 38.588C41.9209 38.4997 41.7597 38.4556 41.5797 38.4556C41.3183 38.4556 41.101 38.5506 40.9278 38.7408C40.7581 38.9275 40.6766 39.2399 40.6834 39.6778H39.3949ZM52.7916 31.7635L49.4303 44.2512H48.0705L51.4318 31.7635H52.7916ZM54.0852 42.6826V34.86H55.5469V36.1332H55.6436C55.8066 35.702 56.0731 35.3659 56.4432 35.1248C56.8133 34.8804 57.2564 34.7581 57.7724 34.7581C58.2953 34.7581 58.7333 34.8804 59.0864 35.1248C59.4429 35.3693 59.706 35.7054 59.8758 36.1332H59.9573C60.144 35.7156 60.4411 35.3829 60.8485 35.135C61.2559 34.8838 61.7415 34.7581 62.3051 34.7581C63.0147 34.7581 63.5936 34.9805 64.0417 35.4253C64.4933 35.8701 64.7191 36.5406 64.7191 37.437V42.6826H63.1963V37.5796C63.1963 37.0499 63.052 36.6663 62.7634 36.4286C62.4748 36.1909 62.1302 36.0721 61.7296 36.0721C61.2339 36.0721 60.8485 36.2249 60.5735 36.5305C60.2985 36.8326 60.161 37.2214 60.161 37.6967V42.6826H58.6433V37.4828C58.6433 37.0584 58.5109 36.7172 58.2461 36.4592C57.9812 36.2011 57.6366 36.0721 57.2122 36.0721C56.9236 36.0721 56.6571 36.1485 56.4126 36.3013C56.1716 36.4507 55.9763 36.6595 55.827 36.9277C55.681 37.1959 55.608 37.5066 55.608 37.8597V42.6826H54.0852ZM67.4425 45.6161C67.215 45.6161 67.0079 45.5974 66.8211 45.5601C66.6344 45.5261 66.4952 45.4888 66.4035 45.448L66.7702 44.2003C67.0486 44.275 67.2965 44.3072 67.5138 44.2971C67.7311 44.2869 67.9229 44.2054 68.0893 44.0526C68.259 43.8998 68.4084 43.6503 68.5374 43.3039L68.7259 42.7845L65.8637 34.86H67.4934L69.4745 40.9307H69.556L71.5371 34.86H73.1719L69.9482 43.7267C69.7988 44.1341 69.6086 44.4787 69.3778 44.7605C69.1469 45.0457 68.8719 45.2596 68.5527 45.4022C68.2336 45.5448 67.8635 45.6161 67.4425 45.6161ZM79.0554 42.6826V43.9762H72.4296V42.6826H79.0554ZM80.7234 45.6161V34.86H82.2105V36.1281H82.3378C82.4261 35.9651 82.5534 35.7767 82.7197 35.5628C82.8861 35.3489 83.117 35.1622 83.4124 35.0026C83.7078 34.8396 84.0982 34.7581 84.5837 34.7581C85.2152 34.7581 85.7789 34.9177 86.2746 35.2369C86.7703 35.556 87.159 36.0161 87.4408 36.617C87.726 37.218 87.8686 37.9412 87.8686 38.7866C87.8686 39.632 87.7277 40.3569 87.4459 40.9612C87.1641 41.5622 86.7771 42.0256 86.2847 42.3516C85.7924 42.6741 85.2305 42.8354 84.599 42.8354C84.1237 42.8354 83.7349 42.7556 83.4327 42.596C83.134 42.4365 82.8997 42.2497 82.7299 42.0358C82.5602 41.8219 82.4295 41.6318 82.3378 41.4654H82.2461V45.6161H80.7234ZM82.2156 38.7713C82.2156 39.3213 82.2953 39.8035 82.4549 40.2177C82.6145 40.6319 82.8454 40.9561 83.1475 41.1904C83.4497 41.4213 83.8198 41.5367 84.2578 41.5367C84.7127 41.5367 85.093 41.4162 85.3986 41.1751C85.7042 40.9307 85.935 40.5996 86.0912 40.182C86.2508 39.7644 86.3306 39.2942 86.3306 38.7713C86.3306 38.2552 86.2525 37.7918 86.0963 37.381C85.9435 36.9701 85.7126 36.6459 85.4037 36.4082C85.0981 36.1706 84.7161 36.0517 84.2578 36.0517C83.8164 36.0517 83.4429 36.1655 83.1374 36.3929C82.8352 36.6204 82.606 36.9379 82.4498 37.3453C82.2936 37.7527 82.2156 38.2281 82.2156 38.7713ZM89.5747 42.6826V34.86H91.0466V36.1027H91.128C91.2706 35.6816 91.5219 35.3506 91.8818 35.1096C92.2451 34.8651 92.6559 34.7429 93.1143 34.7429C93.2093 34.7429 93.3214 34.7463 93.4504 34.7531C93.5828 34.7598 93.6863 34.7683 93.761 34.7785V36.2351C93.6999 36.2181 93.5913 36.1994 93.4351 36.179C93.2789 36.1553 93.1227 36.1434 92.9666 36.1434C92.6067 36.1434 92.2858 36.2198 92.004 36.3726C91.7256 36.522 91.5049 36.7308 91.3419 36.999C91.179 37.2638 91.0975 37.566 91.0975 37.9055V42.6826H89.5747ZM98.0938 42.8405C97.3604 42.8405 96.7204 42.6724 96.1738 42.3363C95.6272 42.0002 95.2027 41.5299 94.9006 40.9256C94.5984 40.3212 94.4473 39.615 94.4473 38.807C94.4473 37.9955 94.5984 37.2859 94.9006 36.6781C95.2027 36.0704 95.6272 35.5985 96.1738 35.2623C96.7204 34.9262 97.3604 34.7581 98.0938 34.7581C98.8272 34.7581 99.4672 34.9262 100.014 35.2623C100.56 35.5985 100.985 36.0704 101.287 36.6781C101.589 37.2859 101.74 37.9955 101.74 38.807C101.74 39.615 101.589 40.3212 101.287 40.9256C100.985 41.5299 100.56 42.0002 100.014 42.3363C99.4672 42.6724 98.8272 42.8405 98.0938 42.8405ZM98.0989 41.5622C98.5742 41.5622 98.9681 41.4366 99.2804 41.1853C99.5928 40.9341 99.8237 40.5996 99.973 40.182C100.126 39.7644 100.202 39.3044 100.202 38.8019C100.202 38.3028 100.126 37.8444 99.973 37.4268C99.8237 37.0058 99.5928 36.668 99.2804 36.4133C98.9681 36.1587 98.5742 36.0314 98.0989 36.0314C97.6202 36.0314 97.2229 36.1587 96.9072 36.4133C96.5948 36.668 96.3622 37.0058 96.2094 37.4268C96.06 37.8444 95.9853 38.3028 95.9853 38.8019C95.9853 39.3044 96.06 39.7644 96.2094 40.182C96.3622 40.5996 96.5948 40.9341 96.9072 41.1853C97.2229 41.4366 97.6202 41.5622 98.0989 41.5622ZM103.44 34.86H104.963V43.1919C104.963 43.7148 104.868 44.1561 104.678 44.516C104.491 44.8759 104.212 45.1493 103.842 45.336C103.476 45.5227 103.022 45.6161 102.483 45.6161C102.428 45.6161 102.377 45.6161 102.33 45.6161C102.279 45.6161 102.226 45.6144 102.172 45.611V44.3021C102.219 44.3021 102.262 44.3021 102.299 44.3021C102.333 44.3021 102.372 44.3021 102.416 44.3021C102.776 44.3021 103.036 44.2054 103.196 44.0119C103.359 43.8217 103.44 43.545 103.44 43.1817V34.86ZM104.194 33.653C103.929 33.653 103.701 33.5647 103.511 33.3882C103.325 33.2082 103.231 32.9943 103.231 32.7465C103.231 32.4952 103.325 32.2813 103.511 32.1048C103.701 31.9248 103.929 31.8348 104.194 31.8348C104.459 31.8348 104.684 31.9248 104.871 32.1048C105.061 32.2813 105.156 32.4952 105.156 32.7465C105.156 32.9943 105.061 33.2082 104.871 33.3882C104.684 33.5647 104.459 33.653 104.194 33.653ZM110.383 42.8405C109.612 42.8405 108.948 42.6758 108.392 42.3465C107.838 42.0138 107.41 41.5469 107.108 40.946C106.809 40.3416 106.66 39.6337 106.66 38.8222C106.66 38.021 106.809 37.3148 107.108 36.7036C107.41 36.0925 107.831 35.6154 108.371 35.2725C108.914 34.9296 109.549 34.7581 110.276 34.7581C110.717 34.7581 111.145 34.8311 111.559 34.9771C111.973 35.1231 112.345 35.3523 112.675 35.6647C113.004 35.977 113.264 36.3828 113.454 36.8819C113.644 37.3776 113.739 37.9802 113.739 38.6898V39.2297H107.521V38.0889H112.247C112.247 37.6882 112.165 37.3334 112.002 37.0245C111.839 36.7121 111.61 36.4659 111.315 36.286C111.023 36.1061 110.68 36.0161 110.286 36.0161C109.858 36.0161 109.485 36.1213 109.166 36.3318C108.85 36.5389 108.605 36.8106 108.432 37.1467C108.263 37.4794 108.178 37.841 108.178 38.2315V39.1227C108.178 39.6456 108.269 40.0904 108.453 40.457C108.639 40.8237 108.899 41.1038 109.232 41.2974C109.565 41.4875 109.953 41.5826 110.398 41.5826C110.687 41.5826 110.95 41.5418 111.188 41.4603C111.425 41.3755 111.631 41.2498 111.804 41.0835C111.977 40.9171 112.109 40.7117 112.201 40.4672L113.642 40.727C113.527 41.1514 113.32 41.5231 113.021 41.8423C112.726 42.1581 112.354 42.4042 111.906 42.5808C111.461 42.7539 110.953 42.8405 110.383 42.8405ZM118.724 42.8405C117.967 42.8405 117.315 42.669 116.768 42.3261C116.225 41.9798 115.807 41.5028 115.515 40.895C115.223 40.2873 115.077 39.5913 115.077 38.807C115.077 38.0125 115.227 37.3114 115.525 36.7036C115.824 36.0925 116.245 35.6154 116.788 35.2725C117.332 34.9296 117.972 34.7581 118.708 34.7581C119.303 34.7581 119.832 34.8685 120.297 35.0892C120.762 35.3065 121.138 35.612 121.423 36.0059C121.711 36.3997 121.883 36.8598 121.937 37.3861H120.455C120.374 37.0194 120.187 36.7036 119.895 36.4388C119.606 36.174 119.219 36.0415 118.734 36.0415C118.309 36.0415 117.938 36.1536 117.618 36.3777C117.303 36.5984 117.057 36.9141 116.88 37.3249C116.703 37.7324 116.615 38.2145 116.615 38.7713C116.615 39.3417 116.702 39.834 116.875 40.2482C117.048 40.6625 117.293 40.9833 117.608 41.2108C117.927 41.4383 118.303 41.552 118.734 41.552C119.022 41.552 119.284 41.4994 119.518 41.3941C119.756 41.2855 119.954 41.131 120.114 40.9307C120.277 40.7304 120.391 40.4893 120.455 40.2075H121.937C121.883 40.7134 121.718 41.1649 121.443 41.5622C121.168 41.9594 120.8 42.2718 120.338 42.4993C119.88 42.7268 119.342 42.8405 118.724 42.8405ZM127.217 34.86V36.0823H122.944V34.86H127.217ZM124.09 32.9858H125.613V40.3857C125.613 40.6811 125.657 40.9035 125.745 41.0529C125.834 41.1989 125.947 41.2991 126.087 41.3534C126.229 41.4043 126.384 41.4298 126.55 41.4298C126.672 41.4298 126.779 41.4213 126.871 41.4043C126.963 41.3873 127.034 41.3738 127.085 41.3636L127.36 42.6215C127.272 42.6555 127.146 42.6894 126.983 42.7234C126.82 42.7607 126.616 42.7811 126.372 42.7845C125.971 42.7913 125.598 42.72 125.251 42.5706C124.905 42.4212 124.625 42.1903 124.411 41.8779C124.197 41.5656 124.09 41.1734 124.09 40.7015V32.9858Z" fill="#2BD7B0"/>
<path d="M134.22 38.0379V42.6826H132.697V34.86H134.159V36.1332H134.256C134.436 35.719 134.717 35.3863 135.101 35.135C135.488 34.8838 135.975 34.7581 136.563 34.7581C137.096 34.7581 137.563 34.8702 137.963 35.0943C138.364 35.315 138.674 35.6443 138.895 36.0823C139.116 36.5203 139.226 37.0618 139.226 37.7069V42.6826H137.703V37.8902C137.703 37.3232 137.556 36.8802 137.26 36.561C136.965 36.2385 136.559 36.0772 136.043 36.0772C135.69 36.0772 135.376 36.1536 135.101 36.3064C134.829 36.4592 134.614 36.6832 134.454 36.9786C134.298 37.2706 134.22 37.6237 134.22 38.0379ZM141.268 45.6161V34.86H142.756V36.1281H142.883C142.971 35.9651 143.098 35.7767 143.265 35.5628C143.431 35.3489 143.662 35.1622 143.957 35.0026C144.253 34.8396 144.643 34.7581 145.129 34.7581C145.76 34.7581 146.324 34.9177 146.82 35.2369C147.315 35.556 147.704 36.0161 147.986 36.617C148.271 37.218 148.414 37.9412 148.414 38.7866C148.414 39.632 148.273 40.3569 147.991 40.9612C147.709 41.5622 147.322 42.0256 146.83 42.3516C146.337 42.6741 145.776 42.8354 145.144 42.8354C144.669 42.8354 144.28 42.7556 143.978 42.596C143.679 42.4365 143.445 42.2497 143.275 42.0358C143.105 41.8219 142.975 41.6318 142.883 41.4654H142.791V45.6161H141.268ZM142.761 38.7713C142.761 39.3213 142.84 39.8035 143 40.2177C143.16 40.6319 143.39 40.9561 143.693 41.1904C143.995 41.4213 144.365 41.5367 144.803 41.5367C145.258 41.5367 145.638 41.4162 145.944 41.1751C146.249 40.9307 146.48 40.5996 146.636 40.182C146.796 39.7644 146.876 39.2942 146.876 38.7713C146.876 38.2552 146.798 37.7918 146.641 37.381C146.489 36.9701 146.258 36.6459 145.949 36.4082C145.643 36.1706 145.261 36.0517 144.803 36.0517C144.361 36.0517 143.988 36.1655 143.682 36.3929C143.38 36.6204 143.151 36.9379 142.995 37.3453C142.839 37.7527 142.761 38.2281 142.761 38.7713ZM150.12 42.6826V34.86H151.581V36.1332H151.678C151.841 35.702 152.108 35.3659 152.478 35.1248C152.848 34.8804 153.291 34.7581 153.807 34.7581C154.33 34.7581 154.768 34.8804 155.121 35.1248C155.477 35.3693 155.741 35.7054 155.91 36.1332H155.992C156.179 35.7156 156.476 35.3829 156.883 35.135C157.291 34.8838 157.776 34.7581 158.34 34.7581C159.049 34.7581 159.628 34.9805 160.076 35.4253C160.528 35.8701 160.754 36.5406 160.754 37.437V42.6826H159.231V37.5796C159.231 37.0499 159.087 36.6663 158.798 36.4286C158.509 36.1909 158.165 36.0721 157.764 36.0721C157.268 36.0721 156.883 36.2249 156.608 36.5305C156.333 36.8326 156.196 37.2214 156.196 37.6967V42.6826H154.678V37.4828C154.678 37.0584 154.545 36.7172 154.281 36.4592C154.016 36.2011 153.671 36.0721 153.247 36.0721C152.958 36.0721 152.692 36.1485 152.447 36.3013C152.206 36.4507 152.011 36.6595 151.862 36.9277C151.716 37.1959 151.643 37.5066 151.643 37.8597V42.6826H150.12ZM166.59 42.6826V34.86H168.113V42.6826H166.59ZM167.359 33.653C167.094 33.653 166.867 33.5647 166.677 33.3882C166.49 33.2082 166.397 32.9943 166.397 32.7465C166.397 32.4952 166.49 32.2813 166.677 32.1048C166.867 31.9248 167.094 31.8348 167.359 31.8348C167.624 31.8348 167.85 31.9248 168.036 32.1048C168.227 32.2813 168.322 32.4952 168.322 32.7465C168.322 32.9943 168.227 33.2082 168.036 33.3882C167.85 33.5647 167.624 33.653 167.359 33.653ZM171.684 38.0379V42.6826H170.161V34.86H171.623V36.1332H171.72C171.9 35.719 172.182 35.3863 172.565 35.135C172.952 34.8838 173.44 34.7581 174.027 34.7581C174.56 34.7581 175.027 34.8702 175.427 35.0943C175.828 35.315 176.139 35.6443 176.359 36.0823C176.58 36.5203 176.69 37.0618 176.69 37.7069V42.6826H175.168V37.8902C175.168 37.3232 175.02 36.8802 174.725 36.561C174.429 36.2385 174.023 36.0772 173.507 36.0772C173.154 36.0772 172.84 36.1536 172.565 36.3064C172.294 36.4592 172.078 36.6832 171.918 36.9786C171.762 37.2706 171.684 37.6237 171.684 38.0379ZM184.595 36.7698L183.214 37.0143C183.157 36.8377 183.065 36.6697 182.939 36.5101C182.817 36.3505 182.651 36.2198 182.44 36.1179C182.23 36.0161 181.967 35.9651 181.651 35.9651C181.22 35.9651 180.86 36.0619 180.571 36.2554C180.283 36.4456 180.138 36.6917 180.138 36.9939C180.138 37.2553 180.235 37.4658 180.429 37.6254C180.622 37.785 180.935 37.9157 181.366 38.0176L182.608 38.3028C183.328 38.4691 183.865 38.7255 184.218 39.0718C184.571 39.4181 184.747 39.868 184.747 40.4214C184.747 40.8899 184.612 41.3075 184.34 41.6742C184.072 42.0375 183.697 42.3227 183.214 42.5298C182.736 42.7369 182.181 42.8405 181.549 42.8405C180.673 42.8405 179.958 42.6538 179.405 42.2803C178.852 41.9034 178.512 41.3687 178.386 40.676L179.858 40.4519C179.95 40.8356 180.138 41.1259 180.424 41.3228C180.709 41.5164 181.08 41.6131 181.539 41.6131C182.038 41.6131 182.437 41.5096 182.736 41.3025C183.034 41.092 183.184 40.8356 183.184 40.5334C183.184 40.289 183.092 40.0836 182.909 39.9172C182.729 39.7508 182.452 39.6252 182.079 39.5403L180.755 39.25C180.025 39.0837 179.485 38.8188 179.135 38.4556C178.789 38.0923 178.616 37.6322 178.616 37.0754C178.616 36.6136 178.745 36.2096 179.003 35.8633C179.261 35.517 179.617 35.2471 180.072 35.0535C180.527 34.8566 181.048 34.7581 181.636 34.7581C182.481 34.7581 183.146 34.9415 183.632 35.3082C184.118 35.6715 184.438 36.1587 184.595 36.7698ZM190.073 34.86V36.0823H185.8V34.86H190.073ZM186.946 32.9858H188.469V40.3857C188.469 40.6811 188.513 40.9035 188.601 41.0529C188.69 41.1989 188.803 41.2991 188.943 41.3534C189.085 41.4043 189.24 41.4298 189.406 41.4298C189.528 41.4298 189.635 41.4213 189.727 41.4043C189.819 41.3873 189.89 41.3738 189.941 41.3636L190.216 42.6215C190.128 42.6555 190.002 42.6894 189.839 42.7234C189.676 42.7607 189.472 42.7811 189.228 42.7845C188.827 42.7913 188.454 42.72 188.107 42.5706C187.761 42.4212 187.481 42.1903 187.267 41.8779C187.053 41.5656 186.946 41.1734 186.946 40.7015V32.9858ZM194.034 42.8558C193.538 42.8558 193.09 42.7641 192.69 42.5808C192.289 42.394 191.972 42.1241 191.737 41.771C191.506 41.4179 191.391 40.985 191.391 40.4723C191.391 40.0309 191.476 39.6677 191.646 39.3825C191.815 39.0973 192.045 38.8715 192.333 38.7051C192.622 38.5387 192.944 38.4131 193.301 38.3282C193.657 38.2434 194.021 38.1788 194.391 38.1347C194.859 38.0804 195.239 38.0362 195.531 38.0023C195.823 37.9649 196.036 37.9055 196.168 37.824C196.3 37.7426 196.367 37.6101 196.367 37.4268V37.3911C196.367 36.9464 196.241 36.6018 195.99 36.3573C195.742 36.1128 195.372 35.9906 194.88 35.9906C194.367 35.9906 193.963 36.1044 193.667 36.3318C193.375 36.5559 193.173 36.8055 193.061 37.0805L191.63 36.7545C191.8 36.2792 192.048 35.8955 192.374 35.6036C192.703 35.3082 193.082 35.0943 193.51 34.9619C193.937 34.826 194.387 34.7581 194.859 34.7581C195.172 34.7581 195.503 34.7955 195.852 34.8702C196.205 34.9415 196.535 35.0739 196.84 35.2674C197.149 35.461 197.402 35.7377 197.599 36.0976C197.796 36.4541 197.895 36.9175 197.895 37.4879V42.6826H196.407V41.6131H196.346C196.248 41.81 196.1 42.0036 195.903 42.1937C195.706 42.3838 195.453 42.5417 195.144 42.6673C194.835 42.793 194.465 42.8558 194.034 42.8558ZM194.365 41.6335C194.786 41.6335 195.146 41.5503 195.445 41.3839C195.747 41.2176 195.976 41.0003 196.132 40.7321C196.292 40.4604 196.372 40.1701 196.372 39.8612V38.8528C196.317 38.9071 196.212 38.958 196.056 39.0056C195.903 39.0497 195.728 39.0888 195.531 39.1227C195.335 39.1533 195.143 39.1821 194.956 39.2093C194.769 39.2331 194.613 39.2534 194.487 39.2704C194.192 39.3078 193.922 39.3706 193.678 39.4588C193.437 39.5471 193.243 39.6744 193.097 39.8408C192.954 40.0038 192.883 40.2211 192.883 40.4927C192.883 40.8696 193.022 41.1548 193.301 41.3483C193.579 41.5384 193.934 41.6335 194.365 41.6335ZM201.446 32.2525V42.6826H199.923V32.2525H201.446ZM205.017 32.2525V42.6826H203.494V32.2525H205.017Z" fill="white"/>
</svg>
