<svg width="227" height="64" viewBox="0 0 227 64" fill="none" xmlns="http://www.w3.org/2000/svg">
<rect width="64" height="64" rx="32" fill="black"/>
<mask id="mask0_44_345" style="mask-type:alpha" maskUnits="userSpaceOnUse" x="13" y="12" width="39" height="40">
<path d="M37.0571 31.9992L32.5327 50.0998L28.0073 31.9992L32.5327 13.8996L37.0571 31.9992Z" fill="url(#paint0_linear_44_345)" stroke="black" stroke-width="0.533333"/>
<path d="M13.3333 31.9998L32.5333 27.1998L51.7333 31.9998L32.5333 36.7998L13.3333 31.9998Z" fill="url(#paint1_linear_44_345)"/>
</mask>
<g mask="url(#mask0_44_345)">
<rect x="-7.46655" y="2.66669" width="77.8667" height="61.8667" fill="url(#paint2_linear_44_345)"/>
</g>
<path d="M114.08 45.4816V46H108.178C107.912 45.6544 107.712 45.4018 107.58 45.2423C106.197 43.4346 105.293 42.2117 104.868 41.5737L100.123 34.675C99.5643 33.8508 99.1257 33.3324 98.8066 33.1198C98.4876 32.8805 98.0623 32.7609 97.5306 32.7609H95.6962V43.1687C95.6962 43.9131 95.9089 44.4315 96.3343 44.7239C96.7596 44.9898 97.4641 45.2025 98.4478 45.362L99.2054 45.4816V46H88.8773V45.4816L89.5951 45.362C90.3926 45.2025 90.9908 44.9898 91.3895 44.7239C91.8149 44.4315 92.0276 43.9131 92.0276 43.1687V20.9174C92.0276 20.173 91.8149 19.6414 91.3895 19.3223C90.9642 18.9767 90.366 18.7641 89.5951 18.6843L88.8773 18.6046V18.0862H100.083C101.678 18.0862 103.18 18.3254 104.589 18.8039C106.024 19.2825 107.194 20.0534 108.098 21.1168C109.028 22.1802 109.494 23.536 109.494 25.1842C109.494 27.1515 108.842 28.7466 107.54 29.9695C106.264 31.1658 104.615 31.9633 102.595 32.3621L108.058 40.0982C109.361 41.9591 110.398 43.2618 111.168 44.0062C111.939 44.7505 112.71 45.2025 113.481 45.362L114.08 45.4816ZM99.2852 31.9234C103.645 31.9234 105.825 29.81 105.825 25.583C105.825 23.1904 105.187 21.489 103.911 20.4788C102.635 19.442 100.96 18.9236 98.8864 18.9236H95.6962V31.9234H99.2852ZM128.144 40.6166C127.347 42.5573 126.31 44.0194 125.034 45.0031C123.784 45.9867 122.389 46.4785 120.847 46.4785C119.305 46.4785 117.922 46.0798 116.7 45.2822C115.477 44.4847 114.52 43.3681 113.828 41.9326C113.137 40.497 112.792 38.862 112.792 37.0277C112.792 35.0073 113.164 33.2128 113.908 31.6443C114.653 30.0758 115.636 28.8662 116.859 28.0155C118.082 27.1382 119.385 26.6996 120.767 26.6996C122.282 26.6996 123.558 27.0452 124.595 27.7364C125.659 28.401 126.443 29.265 126.948 30.3284C127.48 31.3918 127.745 32.5216 127.745 33.7179L127.706 34.5952H115.742V34.8345C115.742 37.7588 116.354 39.952 117.577 41.4142C118.826 42.8497 120.408 43.5675 122.322 43.5675C123.492 43.5675 124.515 43.3282 125.393 42.8497C126.27 42.3446 127.081 41.5338 127.825 40.4172L128.144 40.6166ZM120.528 27.4174C119.305 27.4174 118.241 27.9889 117.338 29.1321C116.46 30.2752 115.942 31.8304 115.782 33.7977H124.515C124.436 31.8038 124.063 30.2486 123.399 29.1321C122.734 27.9889 121.777 27.4174 120.528 27.4174ZM148.764 45.5614V46H140.47V45.5614L141.148 45.4816C141.812 45.4018 142.264 45.2158 142.503 44.9233C142.769 44.6309 142.902 44.0992 142.902 43.3282V33.04C142.902 31.5778 142.57 30.4613 141.905 29.6903C141.267 28.8928 140.323 28.494 139.074 28.494C138.223 28.494 137.426 28.6801 136.681 29.0523C135.937 29.4245 135.299 29.9163 134.767 30.5278V43.3282C134.767 44.0992 134.887 44.6309 135.126 44.9233C135.392 45.2158 135.857 45.4018 136.522 45.4816L137.2 45.5614V46H128.865V45.5614L129.543 45.4816C130.208 45.4018 130.673 45.2158 130.939 44.9233C131.205 44.6309 131.338 44.0992 131.338 43.3282V21.1966C131.338 20.399 131.165 19.8274 130.819 19.4818C130.474 19.1362 129.822 18.9103 128.865 18.8039V18.445L134.528 16.7702H134.767V29.9296C135.405 29.0257 136.256 28.2548 137.319 27.6167C138.409 26.9521 139.592 26.6198 140.868 26.6198C142.703 26.6198 144.072 27.1648 144.976 28.2548C145.88 29.3447 146.332 30.6208 146.332 32.083V43.3282C146.332 44.0992 146.451 44.6309 146.69 44.9233C146.956 45.2158 147.421 45.4018 148.086 45.4816L148.764 45.5614ZM165.341 44.5246C165.819 44.5246 166.231 44.4182 166.577 44.2055V44.5644C166.098 45.1227 165.553 45.5481 164.942 45.8405C164.357 46.1063 163.772 46.2393 163.187 46.2393C162.283 46.2393 161.606 45.9734 161.154 45.4417C160.728 44.8834 160.476 44.1922 160.396 43.3681C159.758 44.2188 158.934 44.9233 157.924 45.4816C156.94 46.0399 155.916 46.319 154.853 46.319C153.444 46.319 152.261 45.8405 151.304 44.8834C150.374 43.9264 149.908 42.7567 149.908 41.3743C149.908 40.1248 150.307 39.1545 151.105 38.4633C151.929 37.7721 153.338 37.0942 155.332 36.4295L160.356 34.7946V32.0032C160.356 30.355 160.09 29.1586 159.559 28.4143C159.053 27.6433 158.243 27.2578 157.126 27.2578C156.275 27.2578 155.677 27.4705 155.332 27.8959C154.986 28.3212 154.614 29.1586 154.215 30.4081C154.029 30.993 153.803 31.3918 153.537 31.6044C153.271 31.8171 152.926 31.9234 152.5 31.9234C152.022 31.9234 151.596 31.8304 151.224 31.6443C150.879 31.4316 150.613 31.1658 150.427 30.8468C150.613 30.1822 150.998 29.5308 151.583 28.8928C152.168 28.2282 152.939 27.6965 153.896 27.2977C154.88 26.8724 155.996 26.6597 157.246 26.6597C159.479 26.6597 161.114 27.1515 162.151 28.1351C163.214 29.1188 163.746 30.3815 163.746 31.9234V42.451C163.746 43.1687 163.865 43.7004 164.104 44.046C164.344 44.365 164.756 44.5246 165.341 44.5246ZM156.847 44.4847C157.565 44.4847 158.229 44.3385 158.841 44.046C159.452 43.727 159.957 43.315 160.356 42.8098V35.5124L155.85 37.0676C154.787 37.4398 154.055 37.8651 153.657 38.3436C153.285 38.7956 153.098 39.4602 153.098 40.3375C153.098 41.454 153.417 42.4244 154.055 43.2485C154.72 44.0726 155.651 44.4847 156.847 44.4847ZM177.248 26.7793C178.657 26.7793 179.933 27.1648 181.076 27.9358C182.219 28.6801 183.11 29.7568 183.748 31.1658C184.412 32.5748 184.745 34.2097 184.745 36.0706C184.745 38.0911 184.332 39.8988 183.508 41.4939C182.684 43.0624 181.541 44.2853 180.079 45.1626C178.643 46.0133 177.022 46.4386 175.214 46.4386C172.476 46.4386 170.176 45.8272 168.315 44.6043V21.1966C168.315 20.399 168.142 19.8274 167.797 19.4818C167.451 19.1362 166.8 18.9103 165.843 18.8039V18.445L171.505 16.7702H171.745V29.4112C172.276 28.6668 173.007 28.0421 173.938 27.537C174.895 27.0319 175.998 26.7793 177.248 26.7793ZM175.334 45.7209C177.194 45.7209 178.603 44.9632 179.561 43.4479C180.544 41.9326 181.036 39.7127 181.036 36.7884C181.036 34.1034 180.531 32.0431 179.521 30.6075C178.537 29.1719 177.181 28.4542 175.453 28.4542C174.018 28.4542 172.781 28.946 171.745 29.9296V44.365C172.595 45.2689 173.792 45.7209 175.334 45.7209ZM217.419 45.4816V46H207.13V45.4816L207.848 45.4018C208.646 45.3221 209.244 45.1493 209.643 44.8834C210.068 44.6176 210.281 44.2321 210.281 43.727C210.281 43.408 210.174 42.9694 209.962 42.4111L207.808 36.9081H197.161L195.048 42.3313C194.835 42.8364 194.729 43.3017 194.729 43.727C194.729 44.2587 194.928 44.6575 195.327 44.9233C195.726 45.1626 196.337 45.3221 197.161 45.4018L197.879 45.4816V46H190.183V45.4816L190.781 45.4018C191.525 45.2955 192.137 45.0164 192.615 44.5644C193.12 44.0859 193.586 43.3017 194.011 42.2117L203.701 17.807H204.1L213.75 42.2117C214.175 43.3017 214.614 44.0859 215.066 44.5644C215.518 45.0164 216.103 45.2955 216.821 45.4018L217.419 45.4816ZM207.489 36.0706L202.505 23.2702L197.48 36.0706H207.489Z" fill="white"/>
<path d="M218.124 45.2228L218.802 45.1431C219.467 45.0633 219.932 44.8772 220.198 44.5848C220.464 44.2924 220.597 43.7607 220.597 42.9897V30.8273C220.597 30.0297 220.424 29.4582 220.078 29.1126C219.733 28.767 219.081 28.541 218.124 28.4347V28.0758L223.787 26.4009H224.026V42.9897C224.026 43.7607 224.146 44.2924 224.385 44.5848C224.651 44.8772 225.116 45.0633 225.781 45.1431L226.459 45.2228V45.6615H218.124V45.2228Z" fill="white"/>
<path d="M222.127 19.4462L222.68 21.6616L222.127 23.8769L221.573 21.6616L222.127 19.4462Z" fill="white"/>
<path d="M219.911 21.6615L222.127 21.1077L224.342 21.6615L222.127 22.2154L219.911 21.6615Z" fill="white"/>
<defs>
<linearGradient id="paint0_linear_44_345" x1="32.5329" y1="12.8" x2="32.5329" y2="51.2" gradientUnits="userSpaceOnUse">
<stop offset="0.2" stop-color="#A7F29D"/>
<stop offset="0.5" stop-color="#7D5FCF"/>
<stop offset="0.8" stop-color="#719AD0"/>
</linearGradient>
<linearGradient id="paint1_linear_44_345" x1="32.5333" y1="14.4" x2="32.5333" y2="49.8667" gradientUnits="userSpaceOnUse">
<stop offset="0.2" stop-color="#A7F29D"/>
<stop offset="0.5" stop-color="#7D5FCF"/>
<stop offset="0.8" stop-color="#719AD0"/>
</linearGradient>
<linearGradient id="paint2_linear_44_345" x1="31.4668" y1="2.66669" x2="31.4668" y2="64.5334" gradientUnits="userSpaceOnUse">
<stop stop-color="#37C35A"/>
<stop offset="0.6" stop-color="#E4FFF2"/>
</linearGradient>
</defs>
</svg>
